<svg display="none" xmlns="http://www.w3.org/2000/svg">
  <svg>
    <symbol id="gridicons_search" viewBox="0 0 24 24">
      <g>
      <path d="M21 19L15.846 13.846C16.7988 12.3979 17.1805 10.6477 16.917 8.93442C16.6536 7.22111 15.7638 5.66648 14.4199 4.57154C13.076 3.47659 11.3737 2.91923 9.64247 3.00735C7.91125 3.09547 6.27431 3.82281 5.04857 5.04855C3.82283 6.27429 3.09549 7.91123 3.00737 9.64245C2.91925 11.3737 3.47662 13.076 4.57156 14.4199C5.6665 15.7637 7.22113 16.6535 8.93445 16.917C10.6478 17.1804 12.3979 16.7988 13.846 15.846L19 21L21 19ZM5 9.99998C5 7.24298 7.243 4.99998 10 4.99998C12.757 4.99998 15 7.24298 15 9.99998C15 12.757 12.757 15 10 15C7.243 15 5 12.757 5 9.99998Z" fill="white"/>
      </g>
    </symbol>

    <symbol id="mdi_account" viewBox="0 0 24 24">
      <g>
      <path d="M12 4C13.0609 4 14.0783 4.42143 14.8284 5.17157C15.5786 5.92172 16 6.93913 16 8C16 9.06087 15.5786 10.0783 14.8284 10.8284C14.0783 11.5786 13.0609 12 12 12C10.9391 12 9.92172 11.5786 9.17157 10.8284C8.42143 10.0783 8 9.06087 8 8C8 6.93913 8.42143 5.92172 9.17157 5.17157C9.92172 4.42143 10.9391 4 12 4ZM12 14C16.42 14 20 15.79 20 18V20H4V18C4 15.79 7.58 14 12 14Z" fill="white"/>
      </g>
    </symbol>
    <symbol id="topcoat_like" viewBox="0 0 18 18">
      <g>
      <path d="M8.97342 4.59641C6.21857 0.341121 0.642853 2.65926 0.642853 7.29469C0.642853 10.7755 8.28685 16.2205 8.97342 16.9285C9.66471 16.2205 16.9286 10.7755 16.9286 7.29469C16.9286 2.69441 11.7334 0.341121 8.97342 4.59641Z" fill="white"/>

      </g>
    </symbol>
    <symbol id="subscribe__icon" viewBox="0 0 17 17">
      <g>
      <path d="M11 8.5L7.25 10.6651L7.25 6.33494L11 8.5Z" fill="white"/>
      <path d="M4.75 2.00481L16 8.5L4.75 14.9952L4.75 2.00481Z" stroke="white"/>
      </g>
    </symbol>

</svg>